<svg height='300px' width='300px'  fill="#2a7032" xmlns="http://www.w3.org/2000/svg" xmlns:xlink="http://www.w3.org/1999/xlink" version="1.1" x="0px" y="0px" viewBox="0 0 100 100" enable-background="new 0 0 100 100" xml:space="preserve"><path d="M90.421,29.359l-39-21c-0.885-0.478-1.957-0.478-2.842,0l-39,21C8.606,29.882,8,30.897,8,32v57  c0,1.657,1.342,3,3,3c35.373,0,44.765,0,78,0c1.658,0,3-1.343,3-3V32C92,30.897,91.394,29.882,90.421,29.359z M29,62h42v9H29V62z   M71,56H29v-9h42V56z M29,86v-9h42v9H29z M86,86h-9V44c0-1.657-1.342-3-3-3H26c-1.658,0-3,1.343-3,3v42h-9V33.792l36-19.384  l36,19.384V86z"></path></svg>