<svg height='300px' width='300px'  fill="#005A9C" xmlns="http://www.w3.org/2000/svg" xmlns:xlink="http://www.w3.org/1999/xlink" version="1.1" x="0px" y="0px" viewBox="0 0 100 100" enable-background="new 0 0 100 100" xml:space="preserve"><path d="M93.189,38.451l-41.97-32.26c-0.719-0.553-1.719-0.553-2.438,0l-41.97,32.26c-0.679,0.522-0.951,1.419-0.675,2.229  c0.275,0.812,1.037,1.356,1.894,1.356h4.411v50.16c0,1.104,0.896,2,2,2h10.39c0.211,0,2.17-0.218,2.17-2.511v-35.75h45.86v35.75  c0,0.215,0.035,0.429,0.103,0.633l0.17,0.511c0.272,0.816,1.036,1.367,1.897,1.367h10.39c1.104,0,2-0.896,2-2v-50.16h4.549  c0.856,0,1.618-0.545,1.894-1.356C94.14,39.87,93.868,38.974,93.189,38.451z M50,10.3l36.086,27.737H13.914L50,10.3z M25.001,51.937  v-4.439h49.86v4.439H25.001z M83.421,90.198h-6.56v-43.7c0-0.553-0.448-1-1-1h-51.86c-0.552,0-1,0.447-1,1v43.7h-6.56v-50.16h66.98  V90.198z M57.326,83.761c0,0.553-0.448,1-1,1H43.41c-0.552,0-1-0.447-1-1s0.448-1,1-1h12.916  C56.878,82.761,57.326,83.208,57.326,83.761z M63.283,78.436h-1.707c-1.324,0-2.361,1.236-2.361,2.876  c0,1.578,1.037,2.814,2.361,2.814h1.707c1.324,0,2.361-1.236,2.361-2.814V81.25C65.644,79.672,64.606,78.436,63.283,78.436z   M63.644,81.312c0,0.525-0.271,0.814-0.361,0.814h-1.707c-0.09,0-0.361-0.289-0.361-0.876c0-0.525,0.271-0.814,0.361-0.814h1.707  c0.09,0,0.361,0.289,0.361,0.814V81.312z M67.992,71.316l-2.509-10.215c-0.11-0.447-0.511-0.762-0.971-0.762H35.432  c-0.46,0-0.861,0.314-0.971,0.762L31.96,71.281c0,0-1.658,5.216-1.655,5.33l0.364,11.653c0.017,0.54,0.459,0.969,1,0.969h0.254  v2.985c0,1.104,0.899,2.004,2.004,2.004h4.458c1.104,0,2.003-0.899,2.003-2.004v-2.985h19.167v2.985  c0,1.104,0.899,2.004,2.004,2.004h4.458c1.104,0,2.003-0.899,2.003-2.004v-2.985h0.255c0.542,0,0.984-0.431,1-0.973l0.33-11.892  C69.608,76.254,67.992,71.316,67.992,71.316z M33.894,71.792l2.322-9.453h27.511l2.397,9.69H33.82  C33.82,72.03,33.888,71.816,33.894,71.792z M38.385,92.223l-4.462-0.004v-3.852h4.465L38.385,92.223z M66.017,92.223l-4.462-0.004  v-3.852h4.465L66.017,92.223z M67.327,86.367H32.611l-0.301-9.646l0.867-2.692h33.61l0.814,2.46L67.327,86.367z M57.326,80.278  c0,0.553-0.448,1-1,1H43.41c-0.552,0-1-0.447-1-1s0.448-1,1-1h12.916C56.878,79.278,57.326,79.725,57.326,80.278z M38.16,78.436  h-1.707c-1.324,0-2.361,1.236-2.361,2.876c0,1.578,1.037,2.814,2.361,2.814h1.707c1.324,0,2.361-1.236,2.361-2.814V81.25  C40.521,79.672,39.483,78.436,38.16,78.436z M38.521,81.312c0,0.525-0.271,0.814-0.361,0.814h-1.707  c-0.09,0-0.361-0.289-0.361-0.876c0-0.525,0.271-0.814,0.361-0.814h1.707c0.09,0,0.361,0.289,0.361,0.814V81.312z"></path></svg>